<svg aria-hidden="true" style="position: absolute; width: 0; height: 0; overflow: hidden;" version="1.1" xmlns="http://www.w3.org/2000/svg" xmlns:xlink="http://www.w3.org/1999/xlink">
<defs>
<symbol id="icon-inbox" viewBox="0 0 32 32">
<path d="M21.6 8h-11l-6.6 9v5c0 1.104 0.896 2 2 2h20c1.104 0 2-0.896 2-2v-5l-6.4-9zM22.465 17.023l-2.052 3.002-8.588-0.020-2.202-2.994-4.086-0.024 5.663-7.974h9.8l5.6 7.975-4.135 0.035z"></path>
</symbol>
<symbol id="icon-archive1" viewBox="0 0 24 24">
<path d="M13 12h-3c-0.276 0-0.5 0.224-0.5 0.5s0.224 0.5 0.5 0.5h3c0.276 0 0.5-0.224 0.5-0.5s-0.224-0.5-0.5-0.5z"></path>
<path d="M20 5h-17c-0.553 0-1 0.448-1 1s0.447 1 1 1h17c0.553 0 1-0.448 1-1s-0.447-1-1-1z"></path>
<path d="M18 8h-13c-0.553 0-1 0.448-1 1v8c0 1.654 1.346 3 3 3h9c1.654 0 3-1.346 3-3v-8c0-0.552-0.447-1-1-1zM16 18h-9c-0.552 0-1-0.449-1-1v-7h11v7c0 0.551-0.448 1-1 1z"></path>
</symbol>
<symbol id="icon-pin_drop" viewBox="0 0 24 24">
<path d="M5.016 20.016h13.969v1.969h-13.969v-1.969zM9.984 8.016q0 0.844 0.586 1.406t1.43 0.563 1.43-0.563 0.586-1.406q0-0.797-0.609-1.406t-1.406-0.609-1.406 0.609-0.609 1.406zM18 8.016q0 2.016-1.5 4.758t-3 4.477l-1.5 1.734q-0.656-0.703-1.664-1.922t-2.672-4.125-1.664-4.922q0-2.484 1.758-4.242t4.242-1.758 4.242 1.758 1.758 4.242z"></path>
</symbol>
</defs>
</svg>
